<?xml version="1.0" encoding="UTF-8" standalone="no"?>
<svg
   xmlns:dc="http://purl.org/dc/elements/1.1/"
   xmlns:cc="http://creativecommons.org/ns#"
   xmlns:rdf="http://www.w3.org/1999/02/22-rdf-syntax-ns#"
   xmlns:svg="http://www.w3.org/2000/svg"
   xmlns="http://www.w3.org/2000/svg"
   xmlns:sodipodi="http://sodipodi.sourceforge.net/DTD/sodipodi-0.dtd"
   xmlns:inkscape="http://www.inkscape.org/namespaces/inkscape"
   inkscape:version="1.0rc1 (09960d6, 2020-04-09)"
   sodipodi:docname="logo.svg"
   id="svg29"
   preserveAspectRatio="xMidYMid meet"
   viewBox="0 0 4398.1906 1819.118"
   height="181.9118"
   width="439.81906"
   version="1.0">
  <metadata
     id="metadata35">
    <rdf:RDF>
      <cc:Work
         rdf:about="">
        <dc:format>image/svg+xml</dc:format>
        <dc:type
           rdf:resource="http://purl.org/dc/dcmitype/StillImage" />
      </cc:Work>
    </rdf:RDF>
  </metadata>
  <defs
     id="defs33" />
  <sodipodi:namedview
     inkscape:current-layer="svg29"
     inkscape:window-maximized="0"
     inkscape:window-y="23"
     inkscape:window-x="0"
     inkscape:cy="90.645266"
     inkscape:cx="211.90726"
     inkscape:zoom="1.5147348"
     showgrid="true"
     id="namedview31"
     inkscape:window-height="776"
     inkscape:window-width="1440"
     inkscape:pageshadow="2"
     inkscape:pageopacity="0"
     guidetolerance="10"
     gridtolerance="10"
     objecttolerance="10"
     borderopacity="1"
     bordercolor="#666666"
     pagecolor="#ffffff"
     inkscape:document-rotation="0">
    <inkscape:grid
       originy="11.45266"
       originx="-425.92737"
       type="xygrid"
       id="grid26" />
  </sodipodi:namedview>
  <g
     transform="matrix(1.187096,0,0,1.308718,-819.09624,-235.56924)"
     stroke="none"
     fill="#2b3a5e"
     id="layer101">
    <path
       inkscape:connector-curvature="0"
       id="path10"
       d="m 830,1495 v -75 H 760 690 V 800 180 h 1780 1780 v 75 75 h 70 70 v 620 620 H 2610 830 Z" />
  </g>
  <g
     transform="matrix(1.187096,0,0,1.308718,-819.09624,-235.56924)"
     stroke="none"
     fill="#535f7c"
     id="layer102">
    <path
       inkscape:connector-curvature="0"
       id="path13"
       d="m 832,1493 2,-78 3,73 4,72 h 1769 1770 l 3,-617 2,-618 3,623 2,622 H 2610 830 Z" />
  </g>
  <g
     transform="matrix(1.187096,0,0,1.308718,-819.09624,-235.56924)"
     stroke="none"
     fill="#01cba9"
     id="layer103">
    <path
       inkscape:connector-curvature="0"
       id="path16"
       d="M 730,800 V 220 h 1735 1735 v 580 580 H 2465 730 Z" />
  </g>
  <g
     transform="matrix(1.187096,0,0,1.308718,-819.09624,-235.56924)"
     stroke="none"
     fill="#798298"
     id="layer104">
    <path
       inkscape:connector-curvature="0"
       id="path19"
       d="m 832,1493 2,-78 3,72 4,73 1777,3 1777,2 -1782,3 -1783,2 z" />
  </g>
  <g
     transform="matrix(1.187096,0,0,1.308718,-819.09624,-235.56924)"
     stroke="none"
     fill="#ebebeb"
     id="layer105">
    <path
       inkscape:connector-curvature="0"
       id="path22"
       d="m 833,1495 c 0,-44 2,-61 4,-37 2,23 2,59 0,80 -2,20 -4,1 -4,-43 z" />
    <path
       inkscape:connector-curvature="0"
       id="path24"
       d="m 692,803 -2,-623 h 1780 1780 l -2,78 -2,77 -3,-72 -4,-73 H 2470 700 l -3,618 -2,617 z" />
    <path
       inkscape:connector-curvature="0"
       id="path26"
       d="M 730,800 V 220 h 1735 1735 v 580 580 H 2465 730 Z m 584,233 c 44,-16 111,-66 125,-92 6,-11 4,-23 -5,-35 -12,-18 -16,-16 -68,32 -61,55 -129,79 -190,68 -66,-12 -68,-21 -64,-245 l 3,-201 h -27 -28 v 206 c 0,175 3,210 17,235 33,56 137,70 237,32 z m 569,-24 c 15,-16 27,-39 27,-51 0,-36 -36,-100 -91,-161 -50,-56 -52,-57 -71,-40 -19,17 -19,18 5,38 49,40 97,115 97,150 0,46 -26,59 -97,51 -52,-6 -54,-5 -51,16 2,18 11,24 43,29 65,11 107,1 138,-32 z m 736,3 c 38,-28 84,-121 70,-138 -20,-24 -33,-15 -55,35 -12,27 -34,57 -48,66 -27,18 -71,23 -84,10 -4,-3 -10,-45 -13,-92 -5,-74 -9,-89 -28,-104 -28,-23 -62,-24 -102,-4 l -30,16 33,-58 c 18,-32 47,-83 64,-113 33,-56 33,-66 0,-72 -16,-2 -35,28 -107,167 -122,234 -147,294 -128,306 27,17 35,9 68,-70 42,-105 91,-150 151,-141 24,3 30,21 30,96 0,106 34,140 119,122 19,-3 46,-15 60,-26 z m 1086,28 c 4,-6 -1,-44 -10,-86 -10,-41 -14,-78 -10,-82 3,-4 48,-14 98,-22 82,-14 92,-18 89,-35 -2,-11 -5,-22 -7,-24 -2,-2 -45,4 -96,14 -50,9 -95,13 -99,8 -4,-4 -12,-31 -17,-60 l -10,-52 71,-11 c 117,-18 114,-17 108,-45 -3,-19 -9,-24 -26,-20 -85,19 -114,25 -138,25 -25,0 -28,-4 -34,-50 -6,-49 -15,-57 -47,-44 -12,4 -13,13 -5,44 15,59 8,67 -69,74 -96,10 -101,12 -95,41 3,19 9,24 26,20 38,-8 139,-25 151,-25 10,0 38,110 30,118 -2,2 -51,11 -109,19 -100,15 -106,18 -100,37 4,12 8,22 9,24 2,2 41,-4 87,-12 122,-23 125,-23 133,22 21,116 27,132 45,132 10,0 22,-5 25,-10 z m -547,-7 c 81,-6 82,-6 82,-33 0,-26 -1,-27 -47,-19 -70,11 -181,11 -204,-1 -17,-10 -19,-22 -19,-119 V 754 l 98,-19 c 53,-10 103,-20 111,-23 20,-8 -13,51 -56,99 -34,38 -35,40 -17,54 25,18 40,4 105,-95 77,-116 68,-128 -76,-96 -55,13 -115,26 -132,29 l -33,7 v -75 -75 h -29 -29 l 5,79 6,79 -77,13 c -69,11 -77,14 -74,33 3,23 19,25 101,12 l 47,-8 v 109 c 0,123 7,140 60,153 46,11 78,11 178,3 z M 1649,954 c 60,-48 69,-59 60,-75 -12,-24 -21,-24 -44,1 -9,10 -41,36 -71,56 -45,31 -52,40 -43,55 5,11 14,19 19,19 4,0 40,-25 79,-56 z m 428,34 c 9,-8 4,-26 -21,-76 -45,-89 -67,-115 -89,-106 -10,3 -17,9 -15,13 48,103 95,187 103,183 6,-3 15,-9 22,-14 z M 1907,673 c 8,-21 -20,-46 -87,-78 -55,-26 -62,-27 -76,-13 -15,14 -11,19 45,48 65,35 71,43 44,59 -14,8 -15,12 -4,25 12,14 16,14 43,-5 16,-12 32,-28 35,-36 z m -578,38 c 19,-12 -35,-105 -56,-97 -8,3 -17,6 -19,6 -2,0 8,22 24,50 29,53 30,54 51,41 z m 698,-7 c 5,-15 -36,-74 -52,-74 -20,0 -19,12 6,55 20,33 39,41 46,19 z m 73,-21 c 0,-5 -25,-52 -38,-71 -5,-7 -16,-10 -24,-7 -14,5 -13,12 9,50 16,29 29,42 39,38 8,-3 14,-7 14,-10 z m -680,-12 c 0,-5 -41,-71 -56,-89 -1,-2 -9,0 -18,5 -13,7 -11,15 14,55 21,33 34,46 45,42 8,-4 15,-9 15,-13 z" />
  </g>
</svg>
